<svg xmlns="http://www.w3.org/2000/svg" viewBox="0 0 115.25 32.00" fill="none">
  <style>svg &gt; path { fill: #000000; }</style>
  <g transform="translate(2.00, 2.00)">
    <g transform="scale(1)">
      <path d="M8 0H16L8 20H0L8 0Z" fill="oklch(54.6% 0.245 262.881)"/>
      <path d="M18 8H26L18 28H10L18 8Z" fill="oklch(54.6% 0.245 262.881)"/>
    </g>
  </g>
  <path d="M41.3600 25.9820L38 25.9820L38 6.3820L50.5160 6.3820L50.5160 9.0980L41.3600 9.0980L41.3600 14.8380L48.8360 14.8380L48.8360 17.4980L41.3600 17.4980L41.3600 25.9820ZM55.8440 26.3180L55.8440 26.3180Q54.1080 26.3180 52.9600 25.7300Q51.8120 25.1420 51.2520 24.1620Q50.6920 23.1820 50.6920 22.0340L50.6920 22.0340Q50.6920 20.6900 51.3780 19.7100Q52.0640 18.7300 53.4080 18.1840Q54.7520 17.6380 56.7120 17.6380L56.7120 17.6380L60.2680 17.6380Q60.2680 16.5180 59.9600 15.7760Q59.6520 15.0340 59.0080 14.6700Q58.3640 14.3060 57.3560 14.3060L57.3560 14.3060Q56.2080 14.3060 55.3960 14.8240Q54.5840 15.3420 54.3880 16.4060L54.3880 16.4060L51.0840 16.4060Q51.2520 14.8940 52.0920 13.8160Q52.9320 12.7380 54.3180 12.1360Q55.7040 11.5340 57.3560 11.5340L57.3560 11.5340Q59.3440 11.5340 60.7440 12.2200Q62.1440 12.9060 62.8860 14.1800Q63.6280 15.4540 63.6280 17.2460L63.6280 17.2460L63.6280 25.9820L60.7720 25.9820L60.4360 23.7140L60.4360 23.7140Q60.1560 24.2740 59.7220 24.7500Q59.2880 25.2260 58.7280 25.5760Q58.1680 25.9260 57.4540 26.1220Q56.7400 26.3180 55.8440 26.3180ZM56.6000 23.6580L56.6000 23.6580Q57.4120 23.6580 58.0420 23.3640Q58.6720 23.0700 59.1340 22.5240Q59.5960 21.9780 59.8480 21.3060Q60.1000 20.6340 60.1840 19.8780L60.1840 19.8780L60.1840 19.8220L57.0760 19.8220Q56.0960 19.8220 55.4520 20.0600Q54.8080 20.2980 54.5280 20.7460Q54.2480 21.1940 54.2480 21.7820L54.2480 21.7820Q54.2480 22.3700 54.5280 22.7900Q54.8080 23.2100 55.3400 23.4340Q55.8720 23.6580 56.6000 23.6580ZM74.2760 26.3180L74.2760 26.3180Q73.1560 26.3180 72.2600 26.0240Q71.3640 25.7300 70.6920 25.2120Q70.0200 24.6940 69.5720 24.0220L69.5720 24.0220L69.5720 24.0220L69.2080 25.9820L66.2120 25.9820L66.2120 5.8220L69.5720 5.8220L69.5720 13.9420Q70.2440 12.9060 71.3920 12.2200Q72.5400 11.5340 74.2480 11.5340L74.2480 11.5340Q76.2360 11.5340 77.7620 12.5000Q79.2880 13.4660 80.1700 15.1320Q81.0520 16.7980 81.0520 18.9540L81.0520 18.9540Q81.0520 21.0540 80.1840 22.7340Q79.3160 24.4140 77.7900 25.3660Q76.2640 26.3180 74.2760 26.3180ZM73.5760 23.4060L73.5760 23.4060Q74.7520 23.4060 75.6760 22.8320Q76.6000 22.2580 77.1180 21.2640Q77.6360 20.2700 77.6360 18.9260L77.6360 18.9260Q77.6360 17.6100 77.1180 16.6020Q76.6000 15.5940 75.6760 15.0340Q74.7520 14.4740 73.5760 14.4740L73.5760 14.4740Q72.3720 14.4740 71.4620 15.0340Q70.5520 15.5940 70.0340 16.6020Q69.5160 17.6100 69.5160 18.9260L69.5160 18.9260Q69.5160 20.2700 70.0340 21.2640Q70.5520 22.2580 71.4620 22.8320Q72.3720 23.4060 73.5760 23.4060ZM86.6600 25.9820L83.3000 25.9820L83.3000 11.8700L86.2960 11.8700L86.6040 14.5020L86.6040 14.5020Q87.1080 13.5780 87.8640 12.9200Q88.6200 12.2620 89.6420 11.8980Q90.6640 11.5340 91.8960 11.5340L91.8960 11.5340L91.8960 15.0900L90.7200 15.0900Q89.8800 15.0900 89.1240 15.3000Q88.3680 15.5100 87.8220 15.9720Q87.2760 16.4340 86.9680 17.2320Q86.6600 18.0300 86.6600 19.2340L86.6600 19.2340L86.6600 25.9820ZM96.9160 25.9820L93.5560 25.9820L93.5560 11.8700L96.9160 11.8700L96.9160 25.9820ZM95.2360 9.6300L95.2360 9.6300Q94.3120 9.6300 93.7100 9.0560Q93.1080 8.4820 93.1080 7.6420L93.1080 7.6420Q93.1080 6.7740 93.7100 6.2280Q94.3120 5.6820 95.2360 5.6820L95.2360 5.6820Q96.1600 5.6820 96.7620 6.2280Q97.3640 6.7740 97.3640 7.6420L97.3640 7.6420Q97.3640 8.4820 96.7620 9.0560Q96.1600 9.6300 95.2360 9.6300ZM106.5000 26.3180L106.5000 26.3180Q104.4280 26.3180 102.7900 25.3800Q101.1520 24.4420 100.2420 22.7760Q99.3320 21.1100 99.3320 18.9820L99.3320 18.9820Q99.3320 16.7700 100.2420 15.1040Q101.1520 13.4380 102.7900 12.4860Q104.4280 11.5340 106.5280 11.5340L106.5280 11.5340Q109.1600 11.5340 110.9520 12.9200Q112.7440 14.3060 113.2480 16.7140L113.2480 16.7140L109.7200 16.7140Q109.4400 15.6500 108.5580 15.0340Q107.6760 14.4180 106.4720 14.4180L106.4720 14.4180Q105.4360 14.4180 104.5820 14.9500Q103.7280 15.4820 103.2380 16.4900Q102.7480 17.4980 102.7480 18.9260L102.7480 18.9260Q102.7480 20.0180 103.0280 20.8580Q103.3080 21.6980 103.8260 22.2720Q104.3440 22.8460 105.0160 23.1540Q105.6880 23.4620 106.4720 23.4620L106.4720 23.4620Q107.2840 23.4620 107.9420 23.1960Q108.6000 22.9300 109.0620 22.3980Q109.5240 21.8660 109.7200 21.1380L109.7200 21.1380L113.2480 21.1380Q112.7440 23.4900 110.9520 24.9040Q109.1600 26.3180 106.5000 26.3180Z" fill="oklch(20.5% 0 0)"/>
</svg>
